<svg width="135" height="125" viewBox="0 0 135 125" fill="none" xmlns="http://www.w3.org/2000/svg">
<path fill-rule="evenodd" clip-rule="evenodd" d="M0 18C0 8.05887 8.05888 0 18 0H117C126.941 0 135 8.05887 135 18V107C135 116.941 126.941 125 117 125H18C8.05887 125 0 116.941 0 107V18ZM67.8307 110.114C66.9571 110.114 66.4496 109.126 66.9586 108.416L85.7146 82.2489L68.3612 58.1614C67.8499 57.4516 68.3571 56.4611 69.2319 56.4611H83.3025C83.6608 56.4611 83.9956 56.64 84.1947 56.9379L93.4799 70.8333L102.765 56.9379C102.964 56.64 103.299 56.4611 103.657 56.4611H117.74C118.613 56.4611 119.12 57.4469 118.614 58.1572L101.333 82.3854L119.901 108.418C120.408 109.128 119.9 110.114 119.028 110.114H104.843C104.482 110.114 104.145 109.932 103.946 109.63L93.5538 93.7899L83.0141 109.635C82.8152 109.934 82.4798 110.114 82.1206 110.114H67.8307ZM15 109.041C15 109.634 15.4804 110.114 16.0731 110.114H61.8927C62.4853 110.114 62.9657 109.634 62.9657 109.041V97.774C62.9657 97.1813 62.4853 96.7009 61.8927 96.7009H30.774C30.1813 96.7009 29.7009 96.2205 29.7009 95.6278V79.6393C29.7009 79.0466 30.1813 78.5662 30.774 78.5662H56.9566C57.5493 78.5662 58.0297 78.0858 58.0297 77.4931V66.5479C58.0297 65.9553 57.5493 65.4749 56.9566 65.4749H30.774C30.1813 65.4749 29.7009 64.9945 29.7009 64.4018V49.4863C29.7009 48.8937 30.1813 48.4132 30.774 48.4132H61.4635C62.0561 48.4132 62.5365 47.9328 62.5365 47.3402V36.0731C62.5365 35.4804 62.0561 35 61.4635 35H16.0731C15.4804 35 15 35.4804 15 36.0731V109.041Z" fill="#F8F6F0"/>
</svg>
