<svg width="135" height="135" viewBox="0 0 135 135" fill="none" xmlns="http://www.w3.org/2000/svg">
<rect x="10" y="10" width="125" height="125" rx="20" fill="#181614"/>
<path fill-rule="evenodd" clip-rule="evenodd" d="M20 0C8.9543 0 0 8.95431 0 20V105C0 116.046 8.95431 125 20 125H105C116.046 125 125 116.046 125 105V20C125 8.9543 116.046 0 105 0H20ZM15 107.114C15 108.771 16.3431 110.114 18 110.114H59.3272C60.984 110.114 62.3272 108.771 62.3272 107.114V99.8795C62.3272 98.2227 60.984 96.8795 59.3272 96.8795H32.5052C30.8483 96.8795 29.5052 95.5364 29.5052 93.8795V81.9862C29.5052 80.3294 30.8483 78.9863 32.5052 78.9863H54.4568C56.1137 78.9863 57.4568 77.6431 57.4568 75.9862V69.0692C57.4568 67.4124 56.1137 66.0692 54.4568 66.0692H32.5052C30.8483 66.0692 29.5052 64.7261 29.5052 63.0692V52.2347C29.5052 50.5779 30.8483 49.2347 32.5052 49.2347H58.9037C60.5605 49.2347 61.9037 47.8916 61.9037 46.2347V39C61.9037 37.3432 60.5605 36 58.9037 36H18C16.3431 36 15 37.3432 15 39V107.114Z" fill="#F8F6F0"/>
</svg>
